<svg width="56" height="56" viewBox="0 0 56 56" fill="none" xmlns="http://www.w3.org/2000/svg">
<rect width="56" height="56" fill="#EEEEEE"/>
<path d="M28 28C30.7614 28 33 25.7614 33 23C33 20.2386 30.7614 18 28 18C25.2386 18 23 20.2386 23 23C23 25.7614 25.2386 28 28 28Z" stroke="#828282" stroke-width="2" stroke-linecap="round" stroke-linejoin="round"/>
<path d="M20 36C20 33.8783 20.8429 31.8434 22.3431 30.3431C23.8434 28.8429 25.8783 28 28 28C30.1217 28 32.1566 28.8429 33.6569 30.3431C35.1571 31.8434 36 33.8783 36 36" stroke="#828282" stroke-width="2" stroke-linecap="round" stroke-linejoin="round"/>
<line x1="38" y1="13" x2="38" y2="19" stroke="#828282" stroke-width="2" stroke-linecap="round"/>
<line x1="41" y1="16" x2="35" y2="16" stroke="#828282" stroke-width="2" stroke-linecap="round"/>
</svg>
