<svg width="16" height="16" viewBox="0 0 16 16" fill="none" xmlns="http://www.w3.org/2000/svg">
<path d="M8 0C6.41775 0 4.87104 0.469192 3.55544 1.34824C2.23985 2.22729 1.21447 3.47672 0.608967 4.93853C0.00346629 6.40034 -0.15496 8.00887 0.153721 9.56072C0.462403 11.1126 1.22433 12.538 2.34315 13.6569C3.46197 14.7757 4.88743 15.5376 6.43928 15.8463C7.99113 16.155 9.59966 15.9965 11.0615 15.391C12.5233 14.7855 13.7727 13.7602 14.6518 12.4446C15.5308 11.129 16 9.58225 16 8C15.9977 5.87897 15.1541 3.84547 13.6543 2.34568C12.1545 0.845885 10.121 0.00229405 8 0V0ZM4.83334 4.66667C5.09705 4.66667 5.35483 4.74486 5.5741 4.89137C5.79336 5.03788 5.96426 5.24612 6.06518 5.48976C6.16609 5.73339 6.1925 6.00148 6.14105 6.26012C6.0896 6.51876 5.96262 6.75634 5.77615 6.94281C5.58968 7.12928 5.3521 7.25627 5.09346 7.30771C4.83482 7.35916 4.56673 7.33276 4.32309 7.23184C4.07946 7.13092 3.87122 6.96003 3.72471 6.74076C3.5782 6.52149 3.5 6.26371 3.5 6C3.5 5.64638 3.64048 5.30724 3.89053 5.05719C4.14058 4.80714 4.47971 4.66667 4.83334 4.66667ZM4.77467 11.192C5.12424 10.6551 5.60231 10.2139 6.16554 9.90853C6.72876 9.60315 7.35932 9.4432 8 9.4432C8.64069 9.4432 9.27125 9.60315 9.83447 9.90853C10.3977 10.2139 10.8758 10.6551 11.2253 11.192C11.2732 11.2654 11.3061 11.3474 11.3222 11.4335C11.3384 11.5196 11.3374 11.608 11.3193 11.6937C11.3013 11.7795 11.2665 11.8608 11.2171 11.933C11.1676 12.0053 11.1044 12.0672 11.031 12.115C10.9576 12.1628 10.8756 12.1958 10.7895 12.2119C10.7034 12.228 10.615 12.227 10.5293 12.209C10.4435 12.1909 10.3622 12.1562 10.29 12.1067C10.2177 12.0573 10.1558 11.994 10.108 11.9207C9.87976 11.5694 9.56738 11.2808 9.19924 11.081C8.8311 10.8812 8.41887 10.7765 8 10.7765C7.58113 10.7765 7.1689 10.8812 6.80076 11.081C6.43262 11.2808 6.12024 11.5694 5.892 11.9207C5.79538 12.0688 5.64385 12.1725 5.47075 12.209C5.29766 12.2454 5.11717 12.2116 4.969 12.115C4.82084 12.0184 4.71712 11.8668 4.68068 11.6937C4.64423 11.5207 4.67804 11.3402 4.77467 11.192ZM11.1667 7.33333C10.903 7.33333 10.6452 7.25513 10.4259 7.10863C10.2066 6.96212 10.0357 6.75388 9.93483 6.51024C9.83391 6.26661 9.80751 5.99852 9.85896 5.73988C9.9104 5.48124 10.0374 5.24366 10.2239 5.05719C10.4103 4.87072 10.6479 4.74373 10.9066 4.69229C11.1652 4.64084 11.4333 4.66724 11.6769 4.76816C11.9206 4.86908 12.1288 5.03997 12.2753 5.25924C12.4218 5.47851 12.5 5.73629 12.5 6C12.5 6.35362 12.3595 6.69276 12.1095 6.94281C11.8594 7.19286 11.5203 7.33333 11.1667 7.33333Z" fill="url(#paint0_linear)"/>
<defs>
<linearGradient id="paint0_linear" x1="1.22305" y1="14.7128" x2="15.1059" y2="0.961397" gradientUnits="userSpaceOnUse">
<stop stop-color="#EF2126"/>
<stop offset="0.6875" stop-color="#EE7C00"/>
</linearGradient>
</defs>
</svg>
