<svg width="122" height="122" viewBox="0 0 122 122" fill="none" xmlns="http://www.w3.org/2000/svg">
<g opacity="0.6">
<g opacity="0.5">
<path opacity="0.4" d="M120.366 15.8218H105.074V31.1138H120.366V15.8218Z" fill="#EE7C00"/>
<path opacity="0.2" d="M105.074 15.8222H120.366V1.38153C120.366 0.910873 119.986 0.530273 119.515 0.530273H108.472C106.595 0.530273 105.074 2.05267 105.074 3.92848V15.8222Z" fill="#EE7C00"/>
<path opacity="0.6" d="M120.366 31.1145H105.074V45.5552C105.074 46.0259 105.455 46.4065 105.925 46.4065H116.968C118.845 46.4065 120.366 44.8841 120.366 43.0082V31.1145Z" fill="#EE7C00"/>
</g>
<g opacity="0.5">
<path opacity="0.4" d="M105.075 31.1145H89.7827V46.4064H105.075V31.1145Z" fill="#EE7C00"/>
<path opacity="0.2" d="M89.7827 31.1137H105.075V16.673C105.075 16.2023 104.694 15.8217 104.223 15.8217H93.1809C91.3034 15.8217 89.7827 17.3441 89.7827 19.2199V31.1137Z" fill="#EE7C00"/>
<path opacity="0.6" d="M105.075 46.4055H89.7827V60.8462C89.7827 61.3168 90.1633 61.6974 90.634 61.6974H101.676C103.554 61.6974 105.075 60.175 105.075 58.2992V46.4055Z" fill="#EE7C00"/>
</g>
<g opacity="0.5">
<path opacity="0.4" d="M89.7822 46.4068H74.4902V61.6988H89.7822V46.4068Z" fill="#EE7C00"/>
<path opacity="0.2" d="M74.4902 46.4067H89.7822V31.9661C89.7822 31.4954 89.4016 31.1148 88.9309 31.1148H77.8884C76.0109 31.1148 74.4902 32.6372 74.4902 34.513V46.4067Z" fill="#EE7C00"/>
<path opacity="0.6" d="M89.7822 61.6983H74.4902V76.139C74.4902 76.6096 74.8708 76.9902 75.3415 76.9902H86.384C88.2615 76.9902 89.7822 75.4678 89.7822 73.592V61.6983Z" fill="#EE7C00"/>
</g>
</g>
<g opacity="0.6">
<g opacity="0.5">
<path opacity="0.4" d="M0.313527 106.457L15.6055 106.457L15.6055 91.1655L0.313528 91.1655L0.313527 106.457Z" fill="#EE7C00"/>
<path opacity="0.2" d="M15.6055 106.457L0.313528 106.457L0.313527 120.898C0.313527 121.368 0.694128 121.749 1.16478 121.749L12.2073 121.749C14.0848 121.749 15.6055 120.227 15.6055 118.351L15.6055 106.457Z" fill="#EE7C00"/>
<path opacity="0.6" d="M0.313527 91.1647L15.6055 91.1647L15.6055 76.7241C15.6055 76.2534 15.2249 75.8728 14.7542 75.8728L3.71174 75.8728C1.83423 75.8728 0.313528 77.3952 0.313528 79.271L0.313527 91.1647Z" fill="#EE7C00"/>
</g>
<g opacity="0.5">
<path opacity="0.4" d="M15.605 91.1648L30.897 91.1648L30.897 75.8729L15.605 75.8729L15.605 91.1648Z" fill="#EE7C00"/>
<path opacity="0.2" d="M30.897 91.1657L15.605 91.1657L15.605 105.606C15.605 106.077 15.9856 106.458 16.4563 106.458L27.4988 106.458C29.3763 106.458 30.897 104.935 30.897 103.059L30.897 91.1657Z" fill="#EE7C00"/>
<path opacity="0.6" d="M15.605 75.8738L30.897 75.8738L30.897 61.4331C30.897 60.9625 30.5164 60.5819 30.0457 60.5819L19.0032 60.5819C17.1257 60.5819 15.605 62.1043 15.605 63.9801L15.605 75.8738Z" fill="#EE7C00"/>
</g>
<g opacity="0.5">
<path opacity="0.4" d="M30.897 75.8724L46.189 75.8724L46.189 60.5805L30.897 60.5805L30.897 75.8724Z" fill="#EE7C00"/>
<path opacity="0.2" d="M46.189 75.8725L30.897 75.8725L30.897 90.3132C30.897 90.7839 31.2776 91.1645 31.7483 91.1645L42.7908 91.1645C44.6683 91.1645 46.189 89.6421 46.189 87.7663L46.189 75.8725Z" fill="#EE7C00"/>
<path opacity="0.6" d="M30.897 60.581L46.189 60.581L46.189 46.1403C46.189 45.6697 45.8084 45.2891 45.3377 45.2891L34.2952 45.2891C32.4177 45.2891 30.897 46.8114 30.897 48.6873L30.897 60.581Z" fill="#EE7C00"/>
</g>
</g>
<g filter="url(#filter0_d)">
<path fill-rule="evenodd" clip-rule="evenodd" d="M42.052 24.2739C40.5169 24.6852 39.6059 26.2631 40.0173 27.7981L40.5732 29.8728L29.9529 32.7185C26.8828 33.5411 25.0608 36.6969 25.8834 39.767L40.2447 93.3638C41.0673 96.4339 44.223 98.2559 47.2932 97.4333L91.1828 85.6731C94.2529 84.8504 96.0749 81.6947 95.2522 78.6246L80.891 25.0278C80.0684 21.9576 76.9126 20.1357 73.8425 20.9583L63.2233 23.8037L62.6674 21.729C62.2561 20.194 60.6783 19.283 59.1432 19.6943L42.052 24.2739Z" fill="url(#paint0_linear)"/>
<path d="M40.5732 29.8728L40.9455 31.2625L42.3353 30.8902L41.9629 29.5004L40.5732 29.8728ZM29.9529 32.7185L29.5805 31.3288L29.9529 32.7185ZM63.2233 23.8037L61.8336 24.1761L62.206 25.5658L63.5957 25.1935L63.2233 23.8037ZM41.407 27.4257C41.2013 26.6582 41.6568 25.8693 42.4244 25.6636L41.6796 22.8842C39.377 23.5011 38.0105 25.8679 38.6275 28.1705L41.407 27.4257ZM41.9629 29.5004L41.407 27.4257L38.6275 28.1705L39.1834 30.2452L41.9629 29.5004ZM30.3253 34.1082L40.9455 31.2625L40.2008 28.4831L29.5805 31.3288L30.3253 34.1082ZM27.2732 39.3946C26.6562 37.092 28.0227 34.7252 30.3253 34.1082L29.5805 31.3288C25.7428 32.3571 23.4654 36.3017 24.4937 40.1394L27.2732 39.3946ZM41.6344 92.9914L27.2732 39.3946L24.4937 40.1394L38.8549 93.7362L41.6344 92.9914ZM46.9208 96.0435C44.6182 96.6605 42.2514 95.294 41.6344 92.9914L38.8549 93.7362C39.8832 97.5739 43.8279 99.8513 47.6655 98.823L46.9208 96.0435ZM90.8104 84.2833L46.9208 96.0435L47.6655 98.823L91.5552 87.0628L90.8104 84.2833ZM93.8625 78.997C94.4795 81.2996 93.113 83.6664 90.8104 84.2833L91.5552 87.0628C95.3928 86.0345 97.6703 82.0899 96.642 78.2522L93.8625 78.997ZM79.5013 25.4001L93.8625 78.997L96.642 78.2522L82.2807 24.6554L79.5013 25.4001ZM74.2149 22.348C76.5175 21.7311 78.8843 23.0975 79.5013 25.4001L82.2807 24.6554C81.2524 20.8177 77.3078 18.5403 73.4701 19.5686L74.2149 22.348ZM63.5957 25.1935L74.2149 22.348L73.4701 19.5686L62.851 22.414L63.5957 25.1935ZM61.2777 22.1014L61.8336 24.1761L64.6131 23.4313L64.0572 21.3567L61.2777 22.1014ZM59.5156 21.0841C60.2831 20.8784 61.072 21.3339 61.2777 22.1014L64.0572 21.3567C63.4402 19.0541 61.0734 17.6876 58.7708 18.3046L59.5156 21.0841ZM42.4244 25.6636L59.5156 21.0841L58.7708 18.3046L41.6796 22.8842L42.4244 25.6636Z" fill="white"/>
</g>
<rect x="40.5669" y="46.727" width="33.4988" height="3.34988" rx="1.67494" transform="rotate(-15 40.5669 46.727)" fill="white"/>
<rect x="43.1685" y="56.4355" width="33.4988" height="3.34988" rx="1.67494" transform="rotate(-15 43.1685 56.4355)" fill="white"/>
<rect x="46.4121" y="66.7458" width="20.0993" height="3.34988" rx="1.67494" transform="rotate(-15 46.4121 66.7458)" fill="white"/>
<path d="M93.9137 91.9299C101.385 89.928 105.818 82.2487 103.816 74.7777C101.815 67.3067 94.1353 62.873 86.6643 64.8749C79.1933 66.8767 74.7596 74.556 76.7615 82.027C78.7633 89.4981 86.4426 93.9317 93.9137 91.9299Z" fill="url(#paint1_linear)" stroke="white" stroke-width="2.87753" stroke-linecap="round" stroke-linejoin="round"/>
<path d="M88.6616 72.3355L91.9139 84.4733" stroke="white" stroke-width="2.87753" stroke-linecap="round" stroke-linejoin="round"/>
<path d="M84.2192 80.029L96.357 76.7767" stroke="white" stroke-width="2.87753" stroke-linecap="round" stroke-linejoin="round"/>
<defs>
<filter id="filter0_d" x="9.82094" y="5.65869" width="100.193" height="110.853" filterUnits="userSpaceOnUse" color-interpolation-filters="sRGB">
<feFlood flood-opacity="0" result="BackgroundImageFix"/>
<feColorMatrix in="SourceAlpha" type="matrix" values="0 0 0 0 0 0 0 0 0 0 0 0 0 0 0 0 0 0 127 0"/>
<feOffset dy="4.31629"/>
<feGaussianBlur stdDeviation="5.75506"/>
<feColorMatrix type="matrix" values="0 0 0 0 0 0 0 0 0 0 0 0 0 0 0 0 0 0 0.09 0"/>
<feBlend mode="normal" in2="BackgroundImageFix" result="effect1_dropShadow"/>
<feBlend mode="normal" in="SourceGraphic" in2="effect1_dropShadow" result="shape"/>
</filter>
<linearGradient id="paint0_linear" x1="53.8483" y1="34.7403" x2="69.238" y2="91.5532" gradientUnits="userSpaceOnUse">
<stop offset="0.366841" stop-color="#FC8B10"/>
<stop offset="1" stop-color="#FFB360"/>
</linearGradient>
<linearGradient id="paint1_linear" x1="79.8101" y1="100.063" x2="95.722" y2="68.2386" gradientUnits="userSpaceOnUse">
<stop stop-color="#EF2126"/>
<stop offset="0.6875" stop-color="#EE7C00"/>
</linearGradient>
</defs>
</svg>
