<?xml version="1.0" encoding="utf-8"?>
<!-- Generator: Adobe Illustrator 24.1.2, SVG Export Plug-In . SVG Version: 6.00 Build 0)  -->
<svg version="1.1" id="Layer_1" xmlns="http://www.w3.org/2000/svg" xmlns:xlink="http://www.w3.org/1999/xlink" x="0px" y="0px"
	 viewBox="0 0 116 116" style="enable-background:new 0 0 116 116;" xml:space="preserve">
<style type="text/css">
	.st0{fill-rule:evenodd;clip-rule:evenodd;fill:url(#SVGID_1_);}
	.st1{fill:#FFFFFF;}
	.st2{fill:url(#SVGID_2_);stroke:#231F20;stroke-width:2.8775;stroke-linecap:round;stroke-linejoin:round;}
	.st3{opacity:0.5;fill:none;stroke:#FFFFFF;stroke-width:2.8775;stroke-linecap:round;stroke-linejoin:round;}
</style>
<g>
	
		<linearGradient id="SVGID_1_" gradientUnits="userSpaceOnUse" x1="47.9368" y1="84.2837" x2="63.3265" y2="27.4708" gradientTransform="matrix(1 0 0 -1 0 118)">
		<stop  offset="0.3668" style="stop-color:#FC8B10"/>
		<stop  offset="1" style="stop-color:#FFB360"/>
	</linearGradient>
	<path class="st0" d="M36.1,23.3c-1.5,0.4-2.4,2-2,3.5l0.6,2.1L24,31.7c-3.1,0.8-4.9,4-4.1,7l14.4,53.6c0.8,3.1,4,4.9,7,4.1
		l43.9-11.8c3.1-0.8,4.9-4,4.1-7L74.9,24c-0.8-3.1-4-4.9-7-4.1l-10.6,2.8l-0.6-2.1c-0.4-1.5-2-2.4-3.5-2L36.1,23.3z"/>
	<path class="st1" d="M34.6,28.9l0.4,1.4l1.4-0.4L36,28.5L34.6,28.9z M24,31.7l-0.4-1.4L24,31.7z M57.2,22.8l-1.4,0.4l0.4,1.4
		l1.4-0.4L57.2,22.8z M35.4,26.4c-0.2-0.8,0.2-1.6,1-1.8l-0.7-2.8c-2.3,0.6-3.7,3-3.1,5.3L35.4,26.4z M36,28.5l-0.6-2.1l-2.8,0.7
		l0.6,2.1L36,28.5z M24.3,33.1l10.6-2.8l-0.7-2.8l-10.6,2.8L24.3,33.1z M21.3,38.4c-0.6-2.3,0.7-4.7,3.1-5.3l-0.7-2.8
		c-3.8,1-6.1,5-5.1,8.8L21.3,38.4z M35.6,92L21.3,38.4l-2.8,0.7l14.4,53.6L35.6,92z M40.9,95c-2.3,0.6-4.7-0.7-5.3-3.1l-2.8,0.7
		c1,3.8,5,6.1,8.8,5.1L40.9,95z M84.8,83.3L40.9,95l0.7,2.8l43.9-11.8L84.8,83.3z M87.9,78c0.6,2.3-0.7,4.7-3.1,5.3l0.7,2.8
		c3.8-1,6.1-5,5.1-8.8L87.9,78z M73.5,24.4L87.9,78l2.8-0.7L76.3,23.7L73.5,24.4z M68.2,21.3c2.3-0.6,4.7,0.7,5.3,3.1l2.8-0.7
		c-1-3.8-5-6.1-8.8-5.1L68.2,21.3z M57.6,24.2l10.6-2.8l-0.7-2.8l-10.6,2.8L57.6,24.2z M55.3,21.1l0.6,2.1l2.8-0.7l-0.6-2.1
		L55.3,21.1z M53.5,20.1c0.8-0.2,1.6,0.2,1.8,1l2.8-0.7c-0.6-2.3-3-3.7-5.3-3.1L53.5,20.1z M36.4,24.7l17.1-4.6l-0.7-2.8l-17.1,4.6
		L36.4,24.7z"/>
</g>
<path class="st1" d="M36.2,45.3l29.1-7.8c0.9-0.2,1.8,0.3,2.1,1.2v0c0.2,0.9-0.3,1.8-1.2,2.1l-29.1,7.8c-0.9,0.2-1.8-0.3-2.1-1.2
	l0,0C34.8,46.5,35.3,45.5,36.2,45.3z"/>
<path class="st1" d="M38.8,55l29.1-7.8c0.9-0.2,1.8,0.3,2.1,1.2v0c0.2,0.9-0.3,1.8-1.2,2.1l-29.1,7.8c-0.9,0.2-1.8-0.3-2.1-1.2l0,0
	C37.4,56.2,37.9,55.2,38.8,55z"/>
<path class="st1" d="M42,65.3L58.2,61c0.9-0.2,1.8,0.3,2.1,1.2v0c0.2,0.9-0.3,1.8-1.2,2.1l-16.2,4.3c-0.9,0.2-1.8-0.3-2.1-1.2l0,0
	C40.6,66.5,41.1,65.6,42,65.3z"/>
<linearGradient id="SVGID_2_" gradientUnits="userSpaceOnUse" x1="73.5292" y1="19.08" x2="89.4411" y2="50.9039" gradientTransform="matrix(1 0 0 -1 0 118)">
	<stop  offset="0" style="stop-color:#EF2126"/>
	<stop  offset="0.6875" style="stop-color:#EE7C00"/>
</linearGradient>
<path class="st2" d="M87.9,90.9c7.5-2,11.9-9.7,9.9-17.2c-2-7.5-9.7-11.9-17.2-9.9c-7.5,2-11.9,9.7-9.9,17.2
	C72.8,88.5,80.4,92.9,87.9,90.9z"/>
<g>
	<path class="st3" d="M88.4,73.1l-5.5,9.6"/>
	<path class="st3" d="M78.6,80.3l3.8,2.2"/>
</g>
</svg>
