<svg width="305" height="134" viewBox="0 0 305 134" fill="none" xmlns="http://www.w3.org/2000/svg">
<g filter="url(#filter0_f)">
<ellipse cx="139.532" cy="67.1512" rx="67.8521" ry="11" transform="rotate(-15 139.532 67.1512)" fill="url(#paint0_linear)" fill-opacity="0.4"/>
</g>
<path fill-rule="evenodd" clip-rule="evenodd" d="M60.0319 70.3589C46.1201 66.9465 33.3077 70.5505 22.2638 81.4265C17.5418 86.0768 9.94405 86.0186 5.29378 81.2965C0.64351 76.5745 0.701691 68.9768 5.42373 64.3265C22.0255 47.9771 43.252 41.5316 65.7493 47.0499C73.3889 48.9238 79.6466 51.7962 84.9848 54.5635C87.1506 55.6862 88.9853 56.6852 90.6672 57.601C93.4981 59.1424 95.8962 60.4482 98.7121 61.7118C105.864 64.9213 113.635 66.8159 127.85 62.2634C129.757 61.6529 132.152 60.4819 135.998 58.6021C136.818 58.2013 137.703 57.7683 138.665 57.3016C143.605 54.9027 149.794 52.0237 156.714 49.934C170.945 45.6366 188.726 44.595 206.995 56.5445C219.402 64.6596 229.552 66.9456 237.599 66.5033C245.679 66.0593 252.867 62.7961 259.195 57.7002C264.357 53.5433 271.911 54.3579 276.068 59.5195C280.225 64.6812 279.41 72.2354 274.248 76.3923C264.852 83.9593 252.999 89.6932 238.916 90.4672C224.799 91.243 209.664 86.9678 193.858 76.6295C183.196 69.656 173.271 70.0047 163.652 72.9094C158.647 74.4208 153.875 76.5957 149.148 78.891C148.489 79.211 147.802 79.5489 147.095 79.8968C143.295 81.7657 138.912 83.9216 135.17 85.1199C114.982 91.5853 101.109 89.0934 88.8862 83.6082C85.2889 81.994 81.4549 79.9154 78.0909 78.0917C76.5931 77.2797 75.1884 76.5182 73.9394 75.8707C69.412 73.5238 65.0593 71.5921 60.0319 70.3589Z" fill="white" stroke="url(#paint1_linear)" stroke-linecap="round"/>
<path d="M177.905 61.0857C177.905 61.4497 177.827 61.7877 177.671 62.0997C177.523 62.403 177.307 62.6673 177.021 62.8927C176.735 63.118 176.388 63.2957 175.981 63.4257C175.582 63.547 175.127 63.6077 174.616 63.6077C174.304 63.6077 173.996 63.5773 173.693 63.5167C173.389 63.4647 173.103 63.391 172.835 63.2957C172.566 63.1917 172.323 63.0703 172.107 62.9317C171.899 62.793 171.734 62.637 171.613 62.4637C171.535 62.3597 171.496 62.247 171.496 62.1257C171.496 61.935 171.565 61.7703 171.704 61.6317C171.842 61.493 172.003 61.4237 172.185 61.4237C172.332 61.4237 172.466 61.467 172.588 61.5537C172.874 61.7703 173.186 61.9393 173.524 62.0607C173.87 62.1733 174.221 62.2297 174.577 62.2297C175.14 62.2297 175.578 62.1127 175.89 61.8787C176.202 61.636 176.358 61.3197 176.358 60.9297C176.358 60.713 176.314 60.531 176.228 60.3837C176.15 60.2277 176.028 60.102 175.864 60.0067C175.708 59.9113 175.513 59.842 175.279 59.7987C175.045 59.7467 174.772 59.7207 174.46 59.7207C174.312 59.738 174.174 59.738 174.044 59.7207C173.914 59.7033 173.797 59.6687 173.693 59.6167C173.597 59.5647 173.519 59.491 173.459 59.3957C173.398 59.2917 173.368 59.166 173.368 59.0187C173.368 58.8367 173.433 58.6807 173.563 58.5507C173.693 58.412 173.862 58.3427 174.07 58.3427C174.373 58.36 174.655 58.3513 174.915 58.3167C175.175 58.282 175.4 58.2257 175.591 58.1477C175.79 58.061 175.942 57.944 176.046 57.7967C176.158 57.6493 176.215 57.4587 176.215 57.2247C176.215 57.0253 176.167 56.852 176.072 56.7047C175.985 56.5573 175.864 56.436 175.708 56.3407C175.56 56.2367 175.378 56.1587 175.162 56.1067C174.945 56.0547 174.72 56.0287 174.486 56.0287C174.139 56.0287 173.814 56.0807 173.511 56.1847C173.216 56.2887 172.934 56.4403 172.666 56.6397C172.562 56.7177 172.432 56.7567 172.276 56.7567C172.111 56.7567 171.955 56.696 171.808 56.5747C171.669 56.4533 171.6 56.2973 171.6 56.1067C171.6 55.916 171.678 55.76 171.834 55.6387C172.18 55.3353 172.583 55.097 173.043 54.9237C173.511 54.7417 174.039 54.6507 174.629 54.6507C175.097 54.6507 175.526 54.707 175.916 54.8197C176.306 54.9237 176.635 55.0753 176.904 55.2747C177.181 55.474 177.393 55.721 177.541 56.0157C177.697 56.3017 177.775 56.6267 177.775 56.9907C177.775 57.2767 177.718 57.5367 177.606 57.7707C177.493 57.996 177.346 58.191 177.164 58.3557C176.99 58.5203 176.791 58.6547 176.566 58.7587C176.34 58.8627 176.115 58.9363 175.89 58.9797C176.098 59.0057 176.319 59.0663 176.553 59.1617C176.795 59.257 177.016 59.3913 177.216 59.5647C177.415 59.738 177.58 59.9503 177.71 60.2017C177.84 60.453 177.905 60.7477 177.905 61.0857Z" fill="#848484"/>
<path d="M50.8473 61.7627C50.8473 61.9793 50.7693 62.1613 50.6133 62.3087C50.466 62.456 50.2797 62.5297 50.0543 62.5297C49.8463 62.5297 49.6643 62.456 49.5083 62.3087C49.361 62.1613 49.2873 61.9793 49.2873 61.7627V55.7957L48.2473 56.8747C48.1347 56.996 47.9917 57.0567 47.8183 57.0567C47.6537 57.0567 47.502 56.996 47.3633 56.8747C47.2333 56.7447 47.1683 56.5887 47.1683 56.4067C47.1683 56.2247 47.2333 56.0687 47.3633 55.9387L49.3003 53.9757C49.465 53.8023 49.6817 53.7157 49.9503 53.7157C50.193 53.7157 50.401 53.8023 50.5743 53.9757C50.7563 54.1403 50.8473 54.344 50.8473 54.5867V61.7627Z" fill="#848484"/>
<path d="M113.434 79.7497C113.434 79.949 113.369 80.118 113.239 80.2567C113.109 80.3867 112.949 80.4517 112.758 80.4517H107.675C107.493 80.4517 107.328 80.3823 107.181 80.2437C107.034 80.0963 106.96 79.9143 106.96 79.6977C106.96 79.5763 106.986 79.4593 107.038 79.3467C107.09 79.234 107.168 79.1387 107.272 79.0607C108.061 78.4713 108.737 77.9513 109.3 77.5007C109.863 77.0413 110.323 76.6297 110.678 76.2657C111.033 75.893 111.293 75.5507 111.458 75.2387C111.631 74.9267 111.718 74.6233 111.718 74.3287C111.718 74.112 111.675 73.9213 111.588 73.7567C111.501 73.592 111.384 73.4577 111.237 73.3537C111.09 73.241 110.921 73.1587 110.73 73.1067C110.548 73.0547 110.357 73.0287 110.158 73.0287C109.777 73.0287 109.426 73.085 109.105 73.1977C108.793 73.3103 108.511 73.4663 108.26 73.6657C108.13 73.7697 107.983 73.8217 107.818 73.8217C107.636 73.8217 107.476 73.7567 107.337 73.6267C107.198 73.488 107.129 73.319 107.129 73.1197C107.129 72.9897 107.168 72.8683 107.246 72.7557C107.385 72.591 107.562 72.4393 107.779 72.3007C107.996 72.162 108.23 72.045 108.481 71.9497C108.741 71.8543 109.014 71.7807 109.3 71.7287C109.586 71.6767 109.863 71.6507 110.132 71.6507C110.557 71.6507 110.96 71.7113 111.341 71.8327C111.722 71.9453 112.056 72.1143 112.342 72.3397C112.637 72.565 112.871 72.8467 113.044 73.1847C113.217 73.514 113.304 73.8953 113.304 74.3287C113.304 74.736 113.213 75.1303 113.031 75.5117C112.858 75.8843 112.606 76.2657 112.277 76.6557C111.956 77.037 111.566 77.4313 111.107 77.8387C110.648 78.2373 110.128 78.6533 109.547 79.0867H112.758C112.949 79.0867 113.109 79.1517 113.239 79.2817C113.369 79.4117 113.434 79.5677 113.434 79.7497Z" fill="#848484"/>
<g filter="url(#filter1_d)">
<path fill-rule="evenodd" clip-rule="evenodd" d="M252.894 44.4334C251.738 44.7433 251.051 45.9321 251.361 47.0887L251.642 48.1361L245.359 49.8196C243.046 50.4394 241.673 52.817 242.293 55.1301L251.271 88.6365C251.891 90.9497 254.269 92.3224 256.582 91.7026L283.806 84.4079C286.119 83.7881 287.491 81.4105 286.872 79.0974L277.894 45.591C277.274 43.2779 274.896 41.9051 272.583 42.5249L266.301 44.2082L266.02 43.1608C265.71 42.0042 264.522 41.3179 263.365 41.6278L252.894 44.4334Z" fill="url(#paint2_linear)"/>
<path d="M251.642 48.1361L251.923 49.1832L252.97 48.9026L252.689 47.8555L251.642 48.1361ZM286.872 79.0974L285.825 79.3779L286.872 79.0974ZM277.894 45.591L278.941 45.3104L277.894 45.591ZM266.301 44.2082L265.254 44.4888L265.534 45.5359L266.582 45.2553L266.301 44.2082ZM266.02 43.1608L264.973 43.4414L266.02 43.1608ZM252.408 46.8081C252.253 46.2298 252.597 45.6354 253.175 45.4805L252.614 43.3863C250.879 43.8512 249.849 45.6344 250.314 47.3692L252.408 46.8081ZM252.689 47.8555L252.408 46.8081L250.314 47.3692L250.595 48.4167L252.689 47.8555ZM245.64 50.8667L251.923 49.1832L251.361 47.089L245.079 48.7725L245.64 50.8667ZM243.34 54.8496C242.875 53.1147 243.905 51.3315 245.64 50.8667L245.079 48.7725C242.187 49.5473 240.471 52.5193 241.246 55.4107L243.34 54.8496ZM252.318 88.356L243.34 54.8496L241.246 55.4107L250.224 88.9171L252.318 88.356ZM256.301 90.6555C254.566 91.1203 252.783 90.0908 252.318 88.356L250.224 88.9171C250.999 91.8085 253.971 93.5244 256.862 92.7496L256.301 90.6555ZM283.525 83.3609L256.301 90.6555L256.862 92.7496L284.086 85.455L283.525 83.3609ZM285.825 79.3779C286.289 81.1128 285.26 82.896 283.525 83.3609L284.086 85.455C286.978 84.6803 288.693 81.7082 287.919 78.8168L285.825 79.3779ZM276.847 45.8716L285.825 79.3779L287.919 78.8168L278.941 45.3104L276.847 45.8716ZM272.864 43.572C274.598 43.1072 276.382 44.1367 276.847 45.8716L278.941 45.3104C278.166 42.419 275.194 40.7031 272.303 41.4779L272.864 43.572ZM266.582 45.2553L272.864 43.572L272.303 41.4779L266.02 43.1612L266.582 45.2553ZM264.973 43.4414L265.254 44.4888L267.348 43.9277L267.067 42.8802L264.973 43.4414ZM263.646 42.6749C264.224 42.5199 264.818 42.8631 264.973 43.4414L267.067 42.8802C266.603 41.1454 264.819 40.1159 263.085 40.5807L263.646 42.6749ZM253.175 45.4805L263.646 42.6749L263.085 40.5807L252.614 43.3863L253.175 45.4805Z" fill="white"/>
</g>
<rect x="252.302" y="59.4279" width="20.5962" height="1.08401" rx="0.542006" transform="rotate(-15 252.302 59.4279)" stroke="white" stroke-width="1.08401"/>
<rect x="253.985" y="65.7107" width="20.5962" height="1.08401" rx="0.542006" transform="rotate(-15 253.985 65.7107)" stroke="white" stroke-width="1.08401"/>
<rect x="256.085" y="72.3835" width="11.9241" height="1.08401" rx="0.542006" transform="rotate(-15 256.085 72.3835)" stroke="white" stroke-width="1.08401"/>
<path d="M286.203 88.4469C291.12 87.1295 294.038 82.0757 292.72 77.1589C291.403 72.2422 286.349 69.3244 281.432 70.6418C276.516 71.9593 273.598 77.0131 274.915 81.9298C276.233 86.8466 281.287 89.7644 286.203 88.4469Z" fill="url(#paint3_linear)" stroke="white" stroke-width="2.16802" stroke-linecap="round" stroke-linejoin="round"/>
<path d="M282.765 75.6175L284.87 83.4729" stroke="white" stroke-width="2.16802" stroke-linecap="round" stroke-linejoin="round"/>
<path d="M279.89 80.5969L287.745 78.4921" stroke="white" stroke-width="2.16802" stroke-linecap="round" stroke-linejoin="round"/>
<g filter="url(#filter2_ii)">
<path d="M62.8905 58.7044C44.6859 54.2391 27.6664 59.2638 13.8436 72.8765" stroke="url(#paint4_linear)" stroke-width="24" stroke-linecap="round"/>
</g>
<path d="M50.8473 61.7627C50.8473 61.9793 50.7693 62.1613 50.6133 62.3087C50.466 62.456 50.2797 62.5297 50.0543 62.5297C49.8463 62.5297 49.6643 62.456 49.5083 62.3087C49.361 62.1613 49.2873 61.9793 49.2873 61.7627V55.7957L48.2473 56.8747C48.1347 56.996 47.9917 57.0567 47.8183 57.0567C47.6537 57.0567 47.502 56.996 47.3633 56.8747C47.2333 56.7447 47.1683 56.5887 47.1683 56.4067C47.1683 56.2247 47.2333 56.0687 47.3633 55.9387L49.3003 53.9757C49.465 53.8023 49.6817 53.7157 49.9503 53.7157C50.193 53.7157 50.401 53.8023 50.5743 53.9757C50.7563 54.1403 50.8473 54.344 50.8473 54.5867V61.7627Z" fill="white"/>
<defs>
<filter id="filter0_f" x="33.1445" y="0.964569" width="212.774" height="132.373" filterUnits="userSpaceOnUse" color-interpolation-filters="sRGB">
<feFlood flood-opacity="0" result="BackgroundImageFix"/>
<feBlend mode="normal" in="SourceGraphic" in2="BackgroundImageFix" result="shape"/>
<feGaussianBlur stdDeviation="19" result="effect1_foregroundBlur"/>
</filter>
<filter id="filter1_d" x="231.657" y="32.8411" width="65.1199" height="72.0187" filterUnits="userSpaceOnUse" color-interpolation-filters="sRGB">
<feFlood flood-opacity="0" result="BackgroundImageFix"/>
<feColorMatrix in="SourceAlpha" type="matrix" values="0 0 0 0 0 0 0 0 0 0 0 0 0 0 0 0 0 0 127 0"/>
<feOffset dy="3.25203"/>
<feGaussianBlur stdDeviation="4.33605"/>
<feColorMatrix type="matrix" values="0 0 0 0 0 0 0 0 0 0 0 0 0 0 0 0 0 0 0.09 0"/>
<feBlend mode="normal" in2="BackgroundImageFix" result="effect1_dropShadow"/>
<feBlend mode="normal" in="SourceGraphic" in2="effect1_dropShadow" result="shape"/>
</filter>
<filter id="filter2_ii" x="0.999847" y="40.3067" width="74.6729" height="48.9469" filterUnits="userSpaceOnUse" color-interpolation-filters="sRGB">
<feFlood flood-opacity="0" result="BackgroundImageFix"/>
<feBlend mode="normal" in="SourceGraphic" in2="BackgroundImageFix" result="shape"/>
<feColorMatrix in="SourceAlpha" type="matrix" values="0 0 0 0 0 0 0 0 0 0 0 0 0 0 0 0 0 0 127 0" result="hardAlpha"/>
<feOffset dy="-4"/>
<feGaussianBlur stdDeviation="2"/>
<feComposite in2="hardAlpha" operator="arithmetic" k2="-1" k3="1"/>
<feColorMatrix type="matrix" values="0 0 0 0 0 0 0 0 0 0 0 0 0 0 0 0 0 0 0.07 0"/>
<feBlend mode="normal" in2="shape" result="effect1_innerShadow"/>
<feColorMatrix in="SourceAlpha" type="matrix" values="0 0 0 0 0 0 0 0 0 0 0 0 0 0 0 0 0 0 127 0" result="hardAlpha"/>
<feOffset dy="4"/>
<feGaussianBlur stdDeviation="2"/>
<feComposite in2="hardAlpha" operator="arithmetic" k2="-1" k3="1"/>
<feColorMatrix type="matrix" values="0 0 0 0 1 0 0 0 0 1 0 0 0 0 1 0 0 0 0.66 0"/>
<feBlend mode="normal" in2="effect1_innerShadow" result="effect2_innerShadow"/>
</filter>
<linearGradient id="paint0_linear" x1="82.0528" y1="76.3813" x2="88.1385" y2="39.1979" gradientUnits="userSpaceOnUse">
<stop stop-color="#EF2126"/>
<stop offset="0.6875" stop-color="#EE7C00"/>
</linearGradient>
<linearGradient id="paint1_linear" x1="6.7666" y1="67.4517" x2="267.767" y2="67.4517" gradientUnits="userSpaceOnUse">
<stop stop-color="#EE7C00" stop-opacity="0.49"/>
<stop offset="1" stop-color="#EE7C00" stop-opacity="0"/>
</linearGradient>
<linearGradient id="paint2_linear" x1="260.233" y1="51.2863" x2="270.194" y2="88.0553" gradientUnits="userSpaceOnUse">
<stop offset="0.366841" stop-color="#FC8B10"/>
<stop offset="1" stop-color="#FFB360"/>
</linearGradient>
<linearGradient id="paint3_linear" x1="277.036" y1="93.5627" x2="287.334" y2="72.9665" gradientUnits="userSpaceOnUse">
<stop stop-color="#EF2126"/>
<stop offset="0.6875" stop-color="#EE7C00"/>
</linearGradient>
<linearGradient id="paint4_linear" x1="0.7666" y1="80.4517" x2="131.767" y2="46.4517" gradientUnits="userSpaceOnUse">
<stop offset="0.4593" stop-color="#EE7C00"/>
<stop offset="1" stop-color="#FCA84C"/>
</linearGradient>
</defs>
</svg>
