<?xml version="1.0" encoding="utf-8"?>
<!-- Generator: Adobe Illustrator 22.0.0, SVG Export Plug-In . SVG Version: 6.00 Build 0)  -->
<svg version="1.1" id="Слой_1" xmlns="http://www.w3.org/2000/svg" xmlns:xlink="http://www.w3.org/1999/xlink" x="0px" y="0px"
	 viewBox="0 0 13 13" style="enable-background:new 0 0 13 13;" xml:space="preserve">
<style type="text/css">
	.st0{fill:#96991C;}
</style>
<g>
	<path class="st0" d="M9.2,9.7c-0.1,0-0.3,0-0.4-0.1L3.2,3.9C3,3.7,3,3.4,3.2,3.2s0.5-0.2,0.7,0l5.7,5.7c0.2,0.2,0.2,0.5,0,0.7
		C9.4,9.6,9.3,9.7,9.2,9.7z"/>
</g>
<g>
	<path class="st0" d="M3.5,9.7c-0.1,0-0.3,0-0.4-0.1C3,9.4,3,9,3.2,8.8l5.7-5.7C9,3,9.4,3,9.5,3.2s0.2,0.5,0,0.7L3.9,9.5
		C3.8,9.6,3.7,9.7,3.5,9.7z"/>
</g>
</svg>
