<?xml version="1.0" encoding="utf-8"?>
<!-- Generator: Adobe Illustrator 22.0.0, SVG Export Plug-In . SVG Version: 6.00 Build 0)  -->
<svg version="1.1" id="Слой_1" xmlns="http://www.w3.org/2000/svg" xmlns:xlink="http://www.w3.org/1999/xlink" x="0px" y="0px"
	 viewBox="0 0 17 17" style="enable-background:new 0 0 17 17;" xml:space="preserve">
<style type="text/css">
	.st0{fill:#848484;}
</style>
<g>
	<path class="st0" d="M7,14c-3.9,0-7-3.1-7-7c0-3.9,3.1-7,7-7c3.9,0,7,3.1,7,7C14,10.9,10.9,14,7,14z M7,1C3.7,1,1,3.7,1,7
		s2.7,6,6,6s6-2.7,6-6S10.3,1,7,1z"/>
</g>
<g>
	<path class="st0" d="M15.9,16.7c-0.1,0-0.3,0-0.4-0.1l-4.2-4.2c-0.2-0.2-0.2-0.5,0-0.7s0.5-0.2,0.7,0l4.2,4.2
		c0.2,0.2,0.2,0.5,0,0.7C16.2,16.7,16.1,16.7,15.9,16.7z"/>
</g>
</svg>
