<svg width="1337" height="445" viewBox="0 0 1337 445" fill="none" xmlns="http://www.w3.org/2000/svg">
<g opacity="0.5">
<path opacity="0.4" d="M379 92H343V128H379V92Z" fill="white"/>
<path opacity="0.2" d="M343 92H379V58.004C379 56.896 378.104 56 376.996 56H351C346.58 56 343 59.584 343 64V92Z" fill="white"/>
<path opacity="0.6" d="M379 128H343V161.996C343 163.104 343.896 164 345.004 164H371C375.42 164 379 160.416 379 156V128Z" fill="white"/>
</g>
<g opacity="0.5">
<path opacity="0.4" d="M343 128H307V164H343V128Z" fill="white"/>
<path opacity="0.2" d="M307 128H343V94.004C343 92.896 342.104 92 340.996 92H315C310.58 92 307 95.584 307 100V128Z" fill="white"/>
<path opacity="0.6" d="M343 164H307V197.996C307 199.104 307.896 200 309.004 200H335C339.42 200 343 196.416 343 192V164Z" fill="white"/>
</g>
<g opacity="0.5">
<path opacity="0.4" d="M1067 56H1031V92H1067V56Z" fill="white"/>
<path opacity="0.2" d="M1031 56H1067V22.004C1067 20.896 1066.1 20 1065 20H1039C1034.58 20 1031 23.584 1031 28V56Z" fill="white"/>
<path opacity="0.6" d="M1067 92H1031V125.996C1031 127.104 1031.9 128 1033 128H1059C1063.42 128 1067 124.416 1067 120V92Z" fill="white"/>
</g>
<g opacity="0.5">
<path opacity="0.4" d="M1031 92H995V128H1031V92Z" fill="white"/>
<path opacity="0.2" d="M995 92H1031V58.004C1031 56.896 1030.1 56 1029 56H1003C998.58 56 995 59.584 995 64V92Z" fill="white"/>
<path opacity="0.6" d="M1031 128H995V161.996C995 163.104 995.896 164 997.004 164H1023C1027.42 164 1031 160.416 1031 156V128Z" fill="white"/>
</g>
<g opacity="0.5">
<path opacity="0.4" d="M995 128H959V164H995V128Z" fill="white"/>
<path opacity="0.2" d="M959 128H995V94.004C995 92.896 994.104 92 992.996 92H967C962.58 92 959 95.584 959 100V128Z" fill="white"/>
</g>
<g opacity="0.5">
<path opacity="0.4" d="M1288.8 206.6H1262.2V233.2H1288.8V206.6Z" fill="white"/>
<path opacity="0.2" d="M1262.2 206.6H1288.8V181.481C1288.8 180.662 1288.14 180 1287.32 180H1268.11C1264.85 180 1262.2 182.648 1262.2 185.911V206.6Z" fill="white"/>
<path opacity="0.6" d="M1288.8 233.2H1262.2V258.319C1262.2 259.138 1262.86 259.8 1263.68 259.8H1282.89C1286.15 259.8 1288.8 257.152 1288.8 253.889V233.2Z" fill="white"/>
</g>
<g opacity="0.5">
<path opacity="0.4" d="M1262.2 233.2H1235.6V259.8H1262.2V233.2Z" fill="white"/>
<path opacity="0.2" d="M1235.6 233.2H1262.2V208.081C1262.2 207.262 1261.54 206.6 1260.72 206.6H1241.51C1238.25 206.6 1235.6 209.248 1235.6 212.511V233.2Z" fill="white"/>
<path opacity="0.6" d="M1262.2 259.8H1235.6V284.919C1235.6 285.738 1236.26 286.4 1237.08 286.4H1256.29C1259.55 286.4 1262.2 283.752 1262.2 280.489V259.8Z" fill="white"/>
</g>
<g opacity="0.5">
<path opacity="0.4" d="M1235.6 259.8H1209V286.4H1235.6V259.8Z" fill="white"/>
<path opacity="0.2" d="M1209 259.8H1235.6V234.681C1235.6 233.862 1234.94 233.2 1234.12 233.2H1214.91C1211.65 233.2 1209 235.848 1209 239.111V259.8Z" fill="white"/>
<path opacity="0.6" d="M1235.6 286.4H1209V311.519C1209 312.338 1209.66 313 1210.48 313H1229.69C1232.95 313 1235.6 310.352 1235.6 307.089V286.4Z" fill="white"/>
</g>
<path opacity="0.1" d="M1296 138.6H1322.6V113.481C1322.6 112.662 1321.94 112 1321.12 112H1301.91C1298.65 112 1296 114.648 1296 117.911V138.6Z" fill="white"/>
<path opacity="0.1" d="M1182 97.6H1208.6V72.4807C1208.6 71.662 1207.94 71 1207.12 71H1187.91C1184.65 71 1182 73.6482 1182 76.9111V97.6Z" fill="white"/>
<path opacity="0.1" d="M1158 388.6H1184.6V363.481C1184.6 362.662 1183.94 362 1183.12 362H1163.91C1160.65 362 1158 364.648 1158 367.911V388.6Z" fill="white"/>
<path opacity="0.1" d="M1310 26.6H1336.6V1.48073C1336.6 0.662045 1335.94 0 1335.12 0H1315.91C1312.65 0 1310 2.64818 1310 5.91111V26.6Z" fill="white"/>
<path opacity="0.1" d="M101 137.6H127.6V112.481C127.6 111.662 126.938 111 126.119 111H106.911C103.645 111 101 113.648 101 116.911V137.6Z" fill="white"/>
<path opacity="0.2" d="M101 315.6H127.6V290.481C127.6 289.662 126.938 289 126.119 289H106.911C103.645 289 101 291.648 101 294.911V315.6Z" fill="white"/>
<path opacity="0.2" d="M27 231.6H53.6V206.481C53.6 205.662 52.938 205 52.1193 205H32.9111C29.6452 205 27 207.648 27 210.911V231.6Z" fill="white"/>
<path opacity="0.1" d="M0 350.6H26.6V325.481C26.6 324.662 25.938 324 25.1193 324H5.91111C2.64522 324 0 326.648 0 329.911V350.6Z" fill="white"/>
<path opacity="0.1" d="M74 395.6H100.6V370.481C100.6 369.662 99.938 369 99.1193 369H79.9111C76.6452 369 74 371.648 74 374.911V395.6Z" fill="white"/>
<path opacity="0.1" d="M74 422.6H100.6V397.481C100.6 396.662 99.938 396 99.1193 396H79.9111C76.6452 396 74 398.648 74 401.911V422.6Z" fill="white"/>
</svg>
