<svg width="103" height="18" viewBox="0 0 103 18" fill="none" xmlns="http://www.w3.org/2000/svg">
<path d="M14.984 15.44C14.984 15.904 14.816 16.304 14.48 16.64C14.144 16.976 13.736 17.144 13.256 17.144C12.792 17.144 12.392 16.976 12.056 16.64C11.72 16.304 11.552 15.904 11.552 15.44V10.28H3.992V15.464C3.992 15.928 3.824 16.328 3.488 16.664C3.152 16.984 2.744 17.144 2.264 17.144C1.8 17.144 1.4 16.984 1.064 16.664C0.744 16.328 0.584 15.928 0.584 15.464V2.528C0.584 2.064 0.752 1.672 1.088 1.352C1.424 1.016 1.832 0.847999 2.312 0.847999C2.776 0.847999 3.168 1.016 3.488 1.352C3.824 1.672 3.992 2.064 3.992 2.528V7.28H11.552V2.528C11.552 2.064 11.72 1.672 12.056 1.352C12.392 1.016 12.808 0.847999 13.304 0.847999C13.768 0.847999 14.16 1.016 14.48 1.352C14.816 1.672 14.984 2.064 14.984 2.528V15.44ZM28.9387 15.632C28.9387 16.048 28.7867 16.408 28.4827 16.712C28.1947 17 27.8347 17.144 27.4027 17.144C26.9867 17.144 26.6267 17 26.3227 16.712C26.0347 16.408 25.8907 16.048 25.8907 15.632V15.536C25.4907 15.984 24.9467 16.392 24.2587 16.76C23.5867 17.112 22.7707 17.288 21.8107 17.288C20.5307 17.288 19.5867 16.968 18.9787 16.328C18.3707 15.672 18.0667 14.776 18.0667 13.64V6.752C18.0667 6.336 18.2107 5.984 18.4987 5.696C18.8027 5.408 19.1787 5.264 19.6267 5.264C20.0427 5.264 20.3947 5.408 20.6827 5.696C20.9707 5.984 21.1147 6.336 21.1147 6.752V12.44C21.1147 12.84 21.1627 13.176 21.2587 13.448C21.3707 13.72 21.5147 13.944 21.6907 14.12C21.8827 14.28 22.1067 14.4 22.3627 14.48C22.6347 14.544 22.9307 14.576 23.2507 14.576C23.8427 14.576 24.3627 14.44 24.8107 14.168C25.2587 13.896 25.6187 13.592 25.8907 13.256V6.752C25.8907 6.336 26.0347 5.984 26.3227 5.696C26.6267 5.408 27.0027 5.264 27.4507 5.264C27.8667 5.264 28.2187 5.408 28.5067 5.696C28.7947 5.984 28.9387 6.336 28.9387 6.752V15.632ZM43.7251 11.216C43.7251 12.176 43.5891 13.04 43.3171 13.808C43.0611 14.56 42.7011 15.192 42.2371 15.704C41.7891 16.216 41.2531 16.608 40.6291 16.88C40.0051 17.152 39.3251 17.288 38.5891 17.288C37.8851 17.288 37.2291 17.136 36.6211 16.832C36.0131 16.528 35.4771 16.088 35.0131 15.512V15.632C35.0131 16.048 34.8611 16.408 34.5571 16.712C34.2691 17 33.9091 17.144 33.4771 17.144C33.0611 17.144 32.7011 17 32.3971 16.712C32.1091 16.408 31.9651 16.048 31.9651 15.632V2.336C31.9651 1.92 32.1091 1.568 32.3971 1.28C32.7011 0.991999 33.0771 0.847999 33.5251 0.847999C33.9411 0.847999 34.2931 0.991999 34.5811 1.28C34.8691 1.568 35.0131 1.92 35.0131 2.336V6.896C35.4771 6.304 36.0131 5.864 36.6211 5.576C37.2451 5.272 37.9011 5.12 38.5891 5.12C39.3251 5.12 40.0051 5.264 40.6291 5.552C41.2691 5.824 41.8131 6.224 42.2611 6.752C42.7251 7.28 43.0851 7.92 43.3411 8.672C43.5971 9.424 43.7251 10.272 43.7251 11.216ZM40.5811 11.216C40.5811 10.72 40.5091 10.264 40.3651 9.848C40.2211 9.432 40.0211 9.072 39.7651 8.768C39.5091 8.464 39.1971 8.232 38.8291 8.072C38.4771 7.912 38.0771 7.832 37.6291 7.832C37.1331 7.832 36.6371 7.96 36.1411 8.216C35.6451 8.472 35.2691 8.792 35.0131 9.176V13.28C35.2691 13.648 35.6451 13.96 36.1411 14.216C36.6371 14.456 37.1331 14.576 37.6291 14.576C38.0771 14.576 38.4771 14.496 38.8291 14.336C39.1971 14.176 39.5091 13.952 39.7651 13.664C40.0211 13.36 40.2211 13.008 40.3651 12.608C40.5091 12.192 40.5811 11.728 40.5811 11.216ZM49.0756 15.632C49.0756 16.048 48.9236 16.408 48.6196 16.712C48.3316 17 47.9716 17.144 47.5396 17.144C47.1236 17.144 46.7636 17 46.4596 16.712C46.1716 16.408 46.0276 16.048 46.0276 15.632V2.336C46.0276 1.92 46.1716 1.568 46.4596 1.28C46.7636 0.991999 47.1396 0.847999 47.5876 0.847999C48.0036 0.847999 48.3556 0.991999 48.6436 1.28C48.9316 1.568 49.0756 1.92 49.0756 2.336V15.632ZM62.1059 15.632C62.1059 16.048 61.9619 16.408 61.6739 16.712C61.3859 17 61.0339 17.144 60.6179 17.144C60.6179 17.144 60.5779 17.144 60.4979 17.144C60.4179 17.144 60.3779 17.144 60.3779 17.144C60.0099 17.144 59.6979 17.016 59.4419 16.76C59.1859 16.488 59.0579 16.168 59.0579 15.8C58.6579 16.264 58.1379 16.632 57.4979 16.904C56.8579 17.16 56.1539 17.288 55.3859 17.288C54.9219 17.288 54.4499 17.208 53.9699 17.048C53.4899 16.888 53.0579 16.656 52.6739 16.352C52.2899 16.032 51.9699 15.632 51.7139 15.152C51.4739 14.672 51.3539 14.104 51.3539 13.448C51.3539 12.776 51.4739 12.2 51.7139 11.72C51.9699 11.24 52.2899 10.856 52.6739 10.568C53.0579 10.264 53.4899 10.048 53.9699 9.92C54.4499 9.776 54.9219 9.704 55.3859 9.704C56.1539 9.704 56.8579 9.824 57.4979 10.064C58.1539 10.304 58.6739 10.656 59.0579 11.12V9.56C59.0579 8.968 58.8259 8.496 58.3619 8.144C57.8979 7.792 57.2819 7.616 56.5139 7.616C56.0499 7.616 55.6019 7.672 55.1699 7.784C54.7379 7.896 54.3219 8.088 53.9219 8.36C53.7299 8.472 53.5459 8.528 53.3699 8.528C53.0979 8.528 52.8339 8.424 52.5779 8.216C52.3379 8.008 52.2179 7.72 52.2179 7.352C52.2179 7.144 52.2739 6.944 52.3859 6.752C52.5619 6.464 52.8419 6.216 53.2259 6.008C53.6099 5.8 54.0259 5.632 54.4739 5.504C54.9379 5.376 55.3939 5.28 55.8419 5.216C56.3059 5.152 56.7059 5.12 57.0419 5.12C57.6979 5.12 58.3299 5.192 58.9379 5.336C59.5459 5.48 60.0819 5.728 60.5459 6.08C61.0259 6.416 61.4019 6.864 61.6739 7.424C61.9619 7.984 62.1059 8.68 62.1059 9.512V15.632ZM59.0579 14.216V12.776C58.8019 12.44 58.4499 12.192 58.0019 12.032C57.5699 11.856 57.1059 11.768 56.6099 11.768C56.0019 11.768 55.4819 11.92 55.0499 12.224C54.6339 12.528 54.4259 12.96 54.4259 13.52C54.4259 14.064 54.6339 14.488 55.0499 14.792C55.4819 15.08 56.0019 15.224 56.6099 15.224C57.1059 15.224 57.5699 15.144 58.0019 14.984C58.4499 14.808 58.8019 14.552 59.0579 14.216ZM76.0012 15.632C76.0012 16.048 75.8492 16.408 75.5452 16.712C75.2572 17 74.8972 17.144 74.4652 17.144C74.0492 17.144 73.6892 17 73.3852 16.712C73.0972 16.408 72.9532 16.048 72.9532 15.632V9.992C72.9532 9.176 72.7612 8.616 72.3772 8.312C71.9932 7.992 71.4732 7.832 70.8172 7.832C70.5132 7.832 70.2252 7.872 69.9532 7.952C69.6972 8.032 69.4572 8.136 69.2332 8.264C69.0092 8.392 68.8092 8.536 68.6332 8.696C68.4572 8.856 68.3052 9.024 68.1772 9.2V15.632C68.1772 16.048 68.0252 16.408 67.7212 16.712C67.4332 17 67.0732 17.144 66.6412 17.144C66.2252 17.144 65.8652 17 65.5612 16.712C65.2732 16.408 65.1292 16.048 65.1292 15.632V6.752C65.1292 6.336 65.2732 5.984 65.5612 5.696C65.8652 5.408 66.2412 5.264 66.6892 5.264C67.1052 5.264 67.4572 5.408 67.7452 5.696C68.0332 5.984 68.1772 6.336 68.1772 6.752V6.92C68.3692 6.696 68.5932 6.48 68.8492 6.272C69.1212 6.048 69.4252 5.856 69.7612 5.696C70.1132 5.52 70.4892 5.384 70.8892 5.288C71.3052 5.176 71.7532 5.12 72.2332 5.12C73.5132 5.12 74.4572 5.456 75.0652 6.128C75.6892 6.784 76.0012 7.68 76.0012 8.816V15.632ZM88.5796 15.152C88.5796 15.328 88.5396 15.504 88.4596 15.68C88.3796 15.856 88.2596 16.008 88.0996 16.136C87.6836 16.472 87.1716 16.752 86.5636 16.976C85.9556 17.184 85.2436 17.288 84.4276 17.288C83.5316 17.288 82.7076 17.144 81.9556 16.856C81.2036 16.552 80.5556 16.128 80.0116 15.584C79.4676 15.04 79.0436 14.4 78.7396 13.664C78.4356 12.912 78.2836 12.088 78.2836 11.192C78.2836 10.312 78.4356 9.504 78.7396 8.768C79.0436 8.016 79.4676 7.368 80.0116 6.824C80.5556 6.28 81.2036 5.864 81.9556 5.576C82.7076 5.272 83.5316 5.12 84.4276 5.12C84.8756 5.12 85.3076 5.16 85.7236 5.24C86.1556 5.32 86.5476 5.432 86.8996 5.576C87.2516 5.704 87.5556 5.864 87.8116 6.056C88.0836 6.248 88.2836 6.464 88.4116 6.704C88.5076 6.88 88.5556 7.064 88.5556 7.256C88.5556 7.672 88.3956 7.992 88.0756 8.216C87.7716 8.44 87.4516 8.552 87.1156 8.552C86.8116 8.552 86.5316 8.472 86.2756 8.312C86.0196 8.152 85.7476 8.032 85.4596 7.952C85.1716 7.872 84.8756 7.832 84.5716 7.832C84.1076 7.832 83.6836 7.912 83.2996 8.072C82.9156 8.232 82.5796 8.464 82.2916 8.768C82.0196 9.056 81.8036 9.408 81.6436 9.824C81.4996 10.24 81.4276 10.696 81.4276 11.192C81.4276 11.704 81.4996 12.168 81.6436 12.584C81.8036 12.984 82.0196 13.336 82.2916 13.64C82.5796 13.944 82.9156 14.176 83.2996 14.336C83.6836 14.496 84.1076 14.576 84.5716 14.576C85.1956 14.576 85.7716 14.408 86.2996 14.072C86.5556 13.912 86.8276 13.832 87.1156 13.832C87.4836 13.832 87.8196 13.952 88.1236 14.192C88.4276 14.432 88.5796 14.752 88.5796 15.152ZM102.02 10.784C102.02 11.152 101.884 11.48 101.612 11.768C101.34 12.04 101.004 12.176 100.604 12.176H93.4522C93.5002 12.544 93.6042 12.896 93.7642 13.232C93.9402 13.552 94.1642 13.832 94.4362 14.072C94.7242 14.312 95.0602 14.504 95.4442 14.648C95.8442 14.792 96.2922 14.864 96.7882 14.864C97.1082 14.864 97.4682 14.816 97.8682 14.72C98.2842 14.624 98.6762 14.48 99.0442 14.288C99.2362 14.192 99.4362 14.144 99.6442 14.144C99.9642 14.144 100.26 14.256 100.532 14.48C100.804 14.704 100.94 15 100.94 15.368C100.94 15.768 100.764 16.072 100.412 16.28C99.8362 16.632 99.2042 16.888 98.5162 17.048C97.8442 17.208 97.1562 17.288 96.4522 17.288C95.5722 17.288 94.7482 17.144 93.9802 16.856C93.2282 16.568 92.5722 16.16 92.0122 15.632C91.4682 15.104 91.0362 14.464 90.7162 13.712C90.4122 12.96 90.2602 12.12 90.2602 11.192C90.2602 10.36 90.4042 9.576 90.6922 8.84C90.9962 8.088 91.4122 7.44 91.9402 6.896C92.4682 6.352 93.1002 5.92 93.8362 5.6C94.5722 5.28 95.3802 5.12 96.2602 5.12C96.9162 5.12 97.5242 5.216 98.0842 5.408C98.6602 5.584 99.1802 5.84 99.6442 6.176C100.108 6.512 100.508 6.928 100.844 7.424C101.196 7.904 101.476 8.44 101.684 9.032C101.764 9.304 101.836 9.592 101.9 9.896C101.98 10.2 102.02 10.496 102.02 10.784ZM99.1162 10.112C99.1002 9.84 99.0362 9.552 98.9242 9.248C98.8122 8.944 98.6442 8.672 98.4202 8.432C98.1962 8.176 97.9002 7.968 97.5322 7.808C97.1802 7.632 96.7562 7.544 96.2602 7.544C95.7802 7.544 95.3642 7.624 95.0122 7.784C94.6762 7.944 94.3962 8.152 94.1722 8.408C93.9482 8.648 93.7722 8.92 93.6442 9.224C93.5162 9.528 93.4362 9.824 93.4042 10.112H99.1162Z" fill="white"/>
</svg>
