<svg width="32" height="33" viewBox="0 0 32 33" fill="none" xmlns="http://www.w3.org/2000/svg">
<path opacity="0.4" d="M31.9999 10.6992H21.3333V21.3985H31.9999V10.6992Z" fill="white"/>
<path opacity="0.2" d="M21.3333 10.6993H31.9999V0.595596C31.9999 0.266295 31.7344 0 31.4061 0H23.7036C22.394 0 21.3333 1.06518 21.3333 2.37763V10.6993Z" fill="white"/>
<path opacity="0.6" d="M31.9999 21.3987H21.3333V31.5024C21.3333 31.8317 21.5987 32.098 21.927 32.098H29.6295C30.9392 32.098 31.9999 31.0328 31.9999 29.7204V21.3987Z" fill="white"/>
<path opacity="0.8" d="M10.6667 10.6992H0V21.3985H10.6667V10.6992Z" fill="white"/>
<path opacity="0.5" d="M21.3333 21.3985L21.3333 10.6992L10.6666 10.6992L10.6666 21.3985H21.3333Z" fill="white"/>
<path d="M0 21.3987H10.6667V31.5024C10.6667 31.8317 10.4012 32.098 10.0729 32.098H2.37037C1.06074 32.098 0 31.0328 0 29.7204V21.3987Z" fill="white"/>
<path opacity="0.4" d="M10.6684 10.6993H0.00170898V0.595596C0.00170898 0.266295 0.26719 0 0.595486 0H8.29682C9.60645 0 10.6672 1.06518 10.6672 2.37763V10.6993H10.6684Z" fill="white"/>
</svg>
