<svg width="21" height="21" viewBox="0 0 21 21" fill="none" xmlns="http://www.w3.org/2000/svg">
<path fill-rule="evenodd" clip-rule="evenodd" d="M4.75 2C4.75 1.17157 5.42157 0.5 6.25 0.5C7.07843 0.5 7.75 1.17157 7.75 2V4.5H8.25H14.75C15.8546 4.5 16.75 5.39543 16.75 6.5V13V13.5H19.25C20.0784 13.5 20.75 14.1716 20.75 15C20.75 15.8284 20.0784 16.5 19.25 16.5H16.75V19C16.75 19.8284 16.0784 20.5 15.25 20.5C14.4216 20.5 13.75 19.8284 13.75 19V16.5H13.25H6.75C5.64543 16.5 4.75 15.6046 4.75 14.5V8V7.5H2.25C1.42157 7.5 0.75 6.82843 0.75 6C0.75 5.17157 1.42157 4.5 2.25 4.5H4.75V2ZM13.25 13.5H13.75V13V7.5H8.25121L8.25 7.5L7.75 7.5V8V13.5H13.25Z" fill="url(#paint0_linear)"/>
<defs>
<linearGradient id="paint0_linear" x1="2.27881" y1="18.891" x2="19.6323" y2="1.70175" gradientUnits="userSpaceOnUse">
<stop stop-color="#EF2126"/>
<stop offset="0.6875" stop-color="#EE7C00"/>
</linearGradient>
</defs>
</svg>
