<svg width="21" height="21" viewBox="0 0 21 21" fill="none" xmlns="http://www.w3.org/2000/svg">
<g clip-path="url(#clip0)">
<path d="M13.0415 14.5625C14.7674 14.5625 16.1665 13.1634 16.1665 11.4375C16.1665 9.71161 14.7674 8.3125 13.0415 8.3125C11.3156 8.3125 9.9165 9.71161 9.9165 11.4375C9.9165 13.1634 11.3156 14.5625 13.0415 14.5625Z" fill="#828282"/>
<path d="M18.6201 5.60425H17.5234C17.4356 5.60113 17.3507 5.57209 17.2794 5.52077C17.208 5.46946 17.1535 5.39818 17.1226 5.31591C16.6076 4.22925 16.0751 3.10425 14.9168 3.10425H10.7501C9.85761 3.10425 9.38678 3.75258 8.53428 4.93008C8.21428 5.36925 8.10928 5.60425 7.83095 5.60425H2.83095C1.11178 5.60425 0.750113 6.61175 0.750113 7.45675V16.1134C0.730776 16.392 0.773813 16.6714 0.876089 16.9313C0.978365 17.1912 1.13731 17.425 1.34134 17.6157C1.54538 17.8064 1.78937 17.9492 2.05556 18.0337C2.32175 18.1183 2.60344 18.1423 2.88011 18.1042H18.6201C18.8968 18.1423 19.1785 18.1183 19.4447 18.0337C19.7109 17.9492 19.9548 17.8064 20.1589 17.6157C20.3629 17.425 20.5219 17.1912 20.6241 16.9313C20.7264 16.6714 20.7694 16.392 20.7501 16.1134V7.45675C20.7501 6.61175 20.3809 5.60425 18.6201 5.60425ZM17.8334 11.4376C17.8334 12.3853 17.5524 13.3117 17.0259 14.0997C16.4994 14.8877 15.751 15.5018 14.8755 15.8645C13.9999 16.2272 13.0365 16.3221 12.107 16.1372C11.1775 15.9523 10.3237 15.4959 9.65356 14.8258C8.98343 14.1557 8.52707 13.3019 8.34218 12.3724C8.1573 11.4429 8.25219 10.4795 8.61486 9.60389C8.97753 8.72833 9.59169 7.97997 10.3797 7.45346C11.1677 6.92694 12.0941 6.64591 13.0418 6.64591C14.3122 6.64724 15.5302 7.1525 16.4285 8.05082C17.3269 8.94915 17.8321 10.1672 17.8334 11.4376ZM4.91678 8.72925C4.91678 8.93527 4.85569 9.13667 4.74123 9.30797C4.62677 9.47927 4.46408 9.61278 4.27374 9.69162C4.0834 9.77046 3.87396 9.79109 3.67189 9.7509C3.46983 9.71071 3.28422 9.6115 3.13854 9.46582C2.99286 9.32014 2.89365 9.13453 2.85346 8.93247C2.81327 8.7304 2.8339 8.52096 2.91274 8.33062C2.99158 8.14028 3.12509 7.97759 3.29639 7.86313C3.4677 7.74867 3.66909 7.68758 3.87511 7.68758C4.15138 7.68758 4.41633 7.79733 4.61168 7.99268C4.80703 8.18803 4.91678 8.45298 4.91678 8.72925Z" fill="#828282"/>
<path d="M2.83317 4.75742L5.33317 4.77075C5.44368 4.77075 5.54966 4.72685 5.6278 4.64871C5.70594 4.57057 5.74984 4.46459 5.74984 4.35409V4.14575C5.74984 3.81423 5.61814 3.49629 5.38372 3.26187C5.1493 3.02745 4.83136 2.89575 4.49984 2.89575H3.6665C3.33498 2.89575 3.01704 3.02745 2.78262 3.26187C2.5482 3.49629 2.4165 3.81423 2.4165 4.14575V4.34075C2.4165 4.45126 2.4604 4.55724 2.53854 4.63538C2.61668 4.71352 2.72266 4.75742 2.83317 4.75742Z" fill="#828282"/>
</g>
<defs>
<clipPath id="clip0">
<rect width="20" height="20" fill="white" transform="translate(0.75 0.5)"/>
</clipPath>
</defs>
</svg>
