<svg width="305" height="133" viewBox="0 0 305 133" fill="none" xmlns="http://www.w3.org/2000/svg">
<g filter="url(#filter0_f)">
<ellipse cx="139.765" cy="66.6995" rx="67.8521" ry="11" transform="rotate(-15 139.765 66.6995)" fill="url(#paint0_linear)" fill-opacity="0.4"/>
</g>
<path fill-rule="evenodd" clip-rule="evenodd" d="M60.2653 69.9073C46.3535 66.4949 33.5411 70.0989 22.4972 80.9749C17.7752 85.6251 10.1774 85.567 5.52718 80.8449C0.876909 76.1229 0.935089 68.5251 5.65713 63.8749C22.2589 47.5254 43.4854 41.0799 65.9827 46.5982C73.6223 48.4721 79.88 51.3446 85.2182 54.1119C87.384 55.2346 89.2187 56.2336 90.9006 57.1494C93.7315 58.6908 96.1296 59.9966 98.9455 61.2602C106.098 64.4696 113.868 66.3643 128.084 61.8118C129.99 61.2013 132.386 60.0303 136.231 58.1505C137.051 57.7497 137.937 57.3167 138.898 56.85C143.838 54.4511 150.027 51.572 156.947 49.4824C171.178 45.185 188.96 44.1433 207.229 56.0928C219.635 64.208 229.785 66.4939 237.832 66.0517C245.913 65.6076 253.101 62.3445 259.428 57.2486C264.59 53.0917 272.144 53.9062 276.301 59.0679C280.458 64.2296 279.643 71.7838 274.482 75.9407C265.086 83.5077 253.232 89.2416 239.149 90.0155C225.033 90.7913 209.897 86.5162 194.091 76.1779C183.43 69.2044 173.504 69.5531 163.885 72.4577C158.88 73.9691 154.108 76.1441 149.381 78.4393C148.722 78.7593 148.035 79.0973 147.328 79.4452C143.528 81.314 139.145 83.47 135.404 84.6683C115.215 91.1337 101.343 88.6417 89.1196 83.1566C85.5223 81.5423 81.6883 79.4638 78.3243 77.6401C76.8265 76.8281 75.4218 76.0666 74.1727 75.4191C69.6454 73.0721 65.2927 71.1404 60.2653 69.9073Z" fill="white" stroke="url(#paint1_linear)" stroke-linecap="round"/>
<path d="M178.138 60.634C178.138 60.998 178.06 61.336 177.904 61.648C177.757 61.9513 177.54 62.2157 177.254 62.441C176.968 62.6663 176.622 62.844 176.214 62.974C175.816 63.0953 175.361 63.156 174.849 63.156C174.537 63.156 174.23 63.1257 173.926 63.065C173.623 63.013 173.337 62.9393 173.068 62.844C172.8 62.74 172.557 62.6187 172.34 62.48C172.132 62.3413 171.968 62.1853 171.846 62.012C171.768 61.908 171.729 61.7953 171.729 61.674C171.729 61.4833 171.799 61.3187 171.937 61.18C172.076 61.0413 172.236 60.972 172.418 60.972C172.566 60.972 172.7 61.0153 172.821 61.102C173.107 61.3187 173.419 61.4877 173.757 61.609C174.104 61.7217 174.455 61.778 174.81 61.778C175.374 61.778 175.811 61.661 176.123 61.427C176.435 61.1843 176.591 60.868 176.591 60.478C176.591 60.2613 176.548 60.0793 176.461 59.932C176.383 59.776 176.262 59.6503 176.097 59.555C175.941 59.4597 175.746 59.3903 175.512 59.347C175.278 59.295 175.005 59.269 174.693 59.269C174.546 59.2863 174.407 59.2863 174.277 59.269C174.147 59.2517 174.03 59.217 173.926 59.165C173.831 59.113 173.753 59.0393 173.692 58.944C173.632 58.84 173.601 58.7143 173.601 58.567C173.601 58.385 173.666 58.229 173.796 58.099C173.926 57.9603 174.095 57.891 174.303 57.891C174.607 57.9083 174.888 57.8997 175.148 57.865C175.408 57.8303 175.634 57.774 175.824 57.696C176.024 57.6093 176.175 57.4923 176.279 57.345C176.392 57.1977 176.448 57.007 176.448 56.773C176.448 56.5737 176.401 56.4003 176.305 56.253C176.219 56.1057 176.097 55.9843 175.941 55.889C175.794 55.785 175.612 55.707 175.395 55.655C175.179 55.603 174.953 55.577 174.719 55.577C174.373 55.577 174.048 55.629 173.744 55.733C173.45 55.837 173.168 55.9887 172.899 56.188C172.795 56.266 172.665 56.305 172.509 56.305C172.345 56.305 172.189 56.2443 172.041 56.123C171.903 56.0017 171.833 55.8457 171.833 55.655C171.833 55.4643 171.911 55.3083 172.067 55.187C172.414 54.8837 172.817 54.6453 173.276 54.472C173.744 54.29 174.273 54.199 174.862 54.199C175.33 54.199 175.759 54.2553 176.149 54.368C176.539 54.472 176.869 54.6237 177.137 54.823C177.415 55.0223 177.627 55.2693 177.774 55.564C177.93 55.85 178.008 56.175 178.008 56.539C178.008 56.825 177.952 57.085 177.839 57.319C177.727 57.5443 177.579 57.7393 177.397 57.904C177.224 58.0687 177.025 58.203 176.799 58.307C176.574 58.411 176.349 58.4847 176.123 58.528C176.331 58.554 176.552 58.6147 176.786 58.71C177.029 58.8053 177.25 58.9397 177.449 59.113C177.649 59.2863 177.813 59.4987 177.943 59.75C178.073 60.0013 178.138 60.296 178.138 60.634Z" fill="#848484"/>
<g filter="url(#filter1_ii)">
<path d="M131.744 73.24C97.3395 84.2579 88.4577 64.4668 63.1239 58.2528C44.9193 53.7874 27.8998 58.8121 14.077 72.4249" stroke="url(#paint2_linear)" stroke-width="24" stroke-linecap="round"/>
</g>
<path d="M51.0807 61.311C51.0807 61.5277 51.0027 61.7097 50.8467 61.857C50.6994 62.0043 50.5131 62.078 50.2877 62.078C50.0797 62.078 49.8977 62.0043 49.7417 61.857C49.5944 61.7097 49.5207 61.5277 49.5207 61.311V55.344L48.4807 56.423C48.3681 56.5443 48.2251 56.605 48.0517 56.605C47.8871 56.605 47.7354 56.5443 47.5967 56.423C47.4667 56.293 47.4017 56.137 47.4017 55.955C47.4017 55.773 47.4667 55.617 47.5967 55.487L49.5337 53.524C49.6984 53.3507 49.9151 53.264 50.1837 53.264C50.4264 53.264 50.6344 53.3507 50.8077 53.524C50.9897 53.6887 51.0807 53.8923 51.0807 54.135V61.311Z" fill="white"/>
<path d="M113.667 79.298C113.667 79.4973 113.602 79.6663 113.472 79.805C113.342 79.935 113.182 80 112.991 80H107.908C107.726 80 107.562 79.9307 107.414 79.792C107.267 79.6447 107.193 79.4627 107.193 79.246C107.193 79.1247 107.219 79.0077 107.271 78.895C107.323 78.7823 107.401 78.687 107.505 78.609C108.294 78.0197 108.97 77.4997 109.533 77.049C110.097 76.5897 110.556 76.178 110.911 75.814C111.267 75.4413 111.527 75.099 111.691 74.787C111.865 74.475 111.951 74.1717 111.951 73.877C111.951 73.6603 111.908 73.4697 111.821 73.305C111.735 73.1403 111.618 73.006 111.47 72.902C111.323 72.7893 111.154 72.707 110.963 72.655C110.781 72.603 110.591 72.577 110.391 72.577C110.01 72.577 109.659 72.6333 109.338 72.746C109.026 72.8587 108.745 73.0147 108.493 73.214C108.363 73.318 108.216 73.37 108.051 73.37C107.869 73.37 107.709 73.305 107.57 73.175C107.432 73.0363 107.362 72.8673 107.362 72.668C107.362 72.538 107.401 72.4167 107.479 72.304C107.618 72.1393 107.796 71.9877 108.012 71.849C108.229 71.7103 108.463 71.5933 108.714 71.498C108.974 71.4027 109.247 71.329 109.533 71.277C109.819 71.225 110.097 71.199 110.365 71.199C110.79 71.199 111.193 71.2597 111.574 71.381C111.956 71.4937 112.289 71.6627 112.575 71.888C112.87 72.1133 113.104 72.395 113.277 72.733C113.451 73.0623 113.537 73.4437 113.537 73.877C113.537 74.2843 113.446 74.6787 113.264 75.06C113.091 75.4327 112.84 75.814 112.51 76.204C112.19 76.5853 111.8 76.9797 111.34 77.387C110.881 77.7857 110.361 78.2017 109.78 78.635H112.991C113.182 78.635 113.342 78.7 113.472 78.83C113.602 78.96 113.667 79.116 113.667 79.298Z" fill="white"/>
<g filter="url(#filter2_d)">
<path fill-rule="evenodd" clip-rule="evenodd" d="M253.128 43.9818C251.971 44.2917 251.285 45.4805 251.595 46.637L251.875 47.6844L245.593 49.3679C243.279 49.9877 241.907 52.3653 242.527 54.6785L251.505 88.1849C252.124 90.498 254.502 91.8707 256.815 91.2509L284.039 83.9563C286.352 83.3365 287.725 80.9589 287.105 78.6457L278.127 45.1393C277.507 42.8262 275.13 41.4535 272.817 42.0733L266.534 43.7566L266.254 42.7091C265.944 41.5526 264.755 40.8662 263.599 41.1761L253.128 43.9818Z" fill="url(#paint3_linear)"/>
<path d="M251.595 46.637L250.548 46.9176L251.595 46.637ZM251.875 47.6844L252.156 48.7315L253.203 48.451L252.922 47.4039L251.875 47.6844ZM242.527 54.6785L241.479 54.959L242.527 54.6785ZM251.505 88.1849L252.552 87.9043L251.505 88.1849ZM287.105 78.6457L288.152 78.3652L287.105 78.6457ZM278.127 45.1393L277.08 45.4199L278.127 45.1393ZM266.534 43.7566L265.487 44.0371L265.768 45.0842L266.815 44.8036L266.534 43.7566ZM252.642 46.3565C252.487 45.7782 252.83 45.1838 253.408 45.0288L252.847 42.9347C251.112 43.3995 250.083 45.1827 250.548 46.9176L252.642 46.3565ZM252.922 47.4039L252.642 46.3565L250.548 46.9176L250.828 47.965L252.922 47.4039ZM245.873 50.415L252.156 48.7315L251.595 46.6374L245.312 48.3208L245.873 50.415ZM243.574 54.3979C243.109 52.6631 244.138 50.8798 245.873 50.415L245.312 48.3208C242.421 49.0956 240.705 52.0676 241.479 54.959L243.574 54.3979ZM252.552 87.9043L243.574 54.3979L241.479 54.959L250.457 88.4654L252.552 87.9043ZM256.535 90.2038C254.8 90.6687 253.016 89.6391 252.552 87.9043L250.457 88.4654C251.232 91.3568 254.204 93.0727 257.096 92.298L256.535 90.2038ZM283.758 82.9092L256.535 90.2038L257.096 92.298L284.32 85.0033L283.758 82.9092ZM286.058 78.9263C286.523 80.6611 285.493 82.4443 283.758 82.9092L284.32 85.0033C287.211 84.2286 288.927 81.2566 288.152 78.3652L286.058 78.9263ZM277.08 45.4199L286.058 78.9263L288.152 78.3652L279.174 44.8588L277.08 45.4199ZM273.097 43.1204C274.832 42.6555 276.615 43.685 277.08 45.4199L279.174 44.8588C278.399 41.9674 275.427 40.2515 272.536 41.0262L273.097 43.1204ZM266.815 44.8036L273.097 43.1204L272.536 41.0262L266.254 42.7095L266.815 44.8036ZM265.207 42.9897L265.487 44.0371L267.582 43.476L267.301 42.4286L265.207 42.9897ZM263.879 42.2232C264.457 42.0682 265.052 42.4114 265.207 42.9897L267.301 42.4286C266.836 40.6937 265.053 39.6642 263.318 40.129L263.879 42.2232ZM253.408 45.0288L263.879 42.2232L263.318 40.129L252.847 42.9347L253.408 45.0288Z" fill="white"/>
</g>
<rect x="252.535" y="58.9762" width="20.5962" height="1.08401" rx="0.542006" transform="rotate(-15 252.535 58.9762)" stroke="white" stroke-width="1.08401"/>
<rect x="254.219" y="65.2591" width="20.5962" height="1.08401" rx="0.542006" transform="rotate(-15 254.219 65.2591)" stroke="white" stroke-width="1.08401"/>
<rect x="256.318" y="71.9319" width="11.9241" height="1.08401" rx="0.542006" transform="rotate(-15 256.318 71.9319)" stroke="white" stroke-width="1.08401"/>
<path d="M286.437 87.9953C291.353 86.6778 294.271 81.624 292.954 76.7073C291.636 71.7905 286.582 68.8727 281.666 70.1902C276.749 71.5076 273.831 76.5614 275.149 81.4781C276.466 86.3949 281.52 89.3127 286.437 87.9953Z" fill="url(#paint4_linear)" stroke="white" stroke-width="2.16802" stroke-linecap="round" stroke-linejoin="round"/>
<path d="M282.998 75.1658L285.103 83.0213" stroke="white" stroke-width="2.16802" stroke-linecap="round" stroke-linejoin="round"/>
<path d="M280.123 80.1453L287.979 78.0404" stroke="white" stroke-width="2.16802" stroke-linecap="round" stroke-linejoin="round"/>
<defs>
<filter id="filter0_f" x="33.3779" y="0.512909" width="212.774" height="132.373" filterUnits="userSpaceOnUse" color-interpolation-filters="sRGB">
<feFlood flood-opacity="0" result="BackgroundImageFix"/>
<feBlend mode="normal" in="SourceGraphic" in2="BackgroundImageFix" result="shape"/>
<feGaussianBlur stdDeviation="19" result="effect1_foregroundBlur"/>
</filter>
<filter id="filter1_ii" x="2.07715" y="40.6632" width="141.67" height="51.8531" filterUnits="userSpaceOnUse" color-interpolation-filters="sRGB">
<feFlood flood-opacity="0" result="BackgroundImageFix"/>
<feBlend mode="normal" in="SourceGraphic" in2="BackgroundImageFix" result="shape"/>
<feColorMatrix in="SourceAlpha" type="matrix" values="0 0 0 0 0 0 0 0 0 0 0 0 0 0 0 0 0 0 127 0" result="hardAlpha"/>
<feOffset dy="-4"/>
<feGaussianBlur stdDeviation="2"/>
<feComposite in2="hardAlpha" operator="arithmetic" k2="-1" k3="1"/>
<feColorMatrix type="matrix" values="0 0 0 0 0 0 0 0 0 0 0 0 0 0 0 0 0 0 0.07 0"/>
<feBlend mode="normal" in2="shape" result="effect1_innerShadow"/>
<feColorMatrix in="SourceAlpha" type="matrix" values="0 0 0 0 0 0 0 0 0 0 0 0 0 0 0 0 0 0 127 0" result="hardAlpha"/>
<feOffset dy="4"/>
<feGaussianBlur stdDeviation="2"/>
<feComposite in2="hardAlpha" operator="arithmetic" k2="-1" k3="1"/>
<feColorMatrix type="matrix" values="0 0 0 0 1 0 0 0 0 1 0 0 0 0 1 0 0 0 0.66 0"/>
<feBlend mode="normal" in2="effect1_innerShadow" result="effect2_innerShadow"/>
</filter>
<filter id="filter2_d" x="232.621" y="34.5974" width="64.3889" height="69.8108" filterUnits="userSpaceOnUse" color-interpolation-filters="sRGB">
<feFlood flood-opacity="0" result="BackgroundImageFix"/>
<feColorMatrix in="SourceAlpha" type="matrix" values="0 0 0 0 0 0 0 0 0 0 0 0 0 0 0 0 0 0 127 0"/>
<feOffset dy="3.25203"/>
<feGaussianBlur stdDeviation="4.33605"/>
<feColorMatrix type="matrix" values="0 0 0 0 0 0 0 0 0 0 0 0 0 0 0 0 0 0 0.09 0"/>
<feBlend mode="normal" in2="BackgroundImageFix" result="effect1_dropShadow"/>
<feBlend mode="normal" in="SourceGraphic" in2="effect1_dropShadow" result="shape"/>
</filter>
<linearGradient id="paint0_linear" x1="82.2862" y1="75.9296" x2="88.3719" y2="38.7462" gradientUnits="userSpaceOnUse">
<stop stop-color="#EF2126"/>
<stop offset="0.6875" stop-color="#EE7C00"/>
</linearGradient>
<linearGradient id="paint1_linear" x1="7" y1="67.0001" x2="268" y2="67" gradientUnits="userSpaceOnUse">
<stop offset="0.0693016" stop-color="#EE7C00" stop-opacity="0"/>
<stop offset="0.420408" stop-color="#EE7C00" stop-opacity="0.49"/>
<stop offset="1" stop-color="#EE7C00" stop-opacity="0"/>
</linearGradient>
<linearGradient id="paint2_linear" x1="0.999999" y1="80" x2="132" y2="46" gradientUnits="userSpaceOnUse">
<stop offset="0.4593" stop-color="#EE7C00"/>
<stop offset="1" stop-color="#FCA84C"/>
</linearGradient>
<linearGradient id="paint3_linear" x1="260.467" y1="50.8347" x2="270.427" y2="87.6036" gradientUnits="userSpaceOnUse">
<stop offset="0.366841" stop-color="#FC8B10"/>
<stop offset="1" stop-color="#FFB360"/>
</linearGradient>
<linearGradient id="paint4_linear" x1="277.269" y1="93.111" x2="287.567" y2="72.5148" gradientUnits="userSpaceOnUse">
<stop stop-color="#EF2126"/>
<stop offset="0.6875" stop-color="#EE7C00"/>
</linearGradient>
</defs>
</svg>
