<svg width="21" height="21" viewBox="0 0 21 21" fill="none" xmlns="http://www.w3.org/2000/svg">
<g clip-path="url(#clip0)">
<path d="M16.9598 6.75H4.53896C4.48094 6.74977 4.42351 6.76165 4.37035 6.7849C4.31719 6.80814 4.26947 6.84223 4.23024 6.88499C4.19102 6.92774 4.16115 6.97822 4.14257 7.03318C4.12398 7.08814 4.11707 7.14638 4.1223 7.20417L5.1948 18.9842C5.23244 19.3984 5.42362 19.7836 5.73077 20.0641C6.03792 20.3446 6.43885 20.5 6.8548 20.5H14.644C15.0599 20.5 15.4608 20.3446 15.768 20.0641C16.0751 19.7836 16.2663 19.3984 16.304 18.9842L17.3748 7.20417C17.38 7.14655 17.3731 7.08849 17.3546 7.03369C17.336 6.97888 17.3063 6.92853 17.2673 6.88584C17.2283 6.84308 17.1808 6.80892 17.1279 6.78553C17.0749 6.76215 17.0177 6.75005 16.9598 6.75ZM9.29313 17.5833C9.29313 17.7491 9.22728 17.9081 9.11007 18.0253C8.99286 18.1425 8.83389 18.2083 8.66813 18.2083C8.50237 18.2083 8.3434 18.1425 8.22619 18.0253C8.10898 17.9081 8.04313 17.7491 8.04313 17.5833V10.0833C8.04313 9.91758 8.10898 9.75861 8.22619 9.6414C8.3434 9.52418 8.50237 9.45834 8.66813 9.45834C8.83389 9.45834 8.99286 9.52418 9.11007 9.6414C9.22728 9.75861 9.29313 9.91758 9.29313 10.0833V17.5833ZM13.4598 17.5833C13.4598 17.7491 13.3939 17.9081 13.2767 18.0253C13.1595 18.1425 13.0006 18.2083 12.8348 18.2083C12.669 18.2083 12.5101 18.1425 12.3929 18.0253C12.2756 17.9081 12.2098 17.7491 12.2098 17.5833V10.0833C12.2098 9.91758 12.2756 9.75861 12.3929 9.6414C12.5101 9.52418 12.669 9.45834 12.8348 9.45834C13.0006 9.45834 13.1595 9.52418 13.2767 9.6414C13.3939 9.75861 13.4598 9.91758 13.4598 10.0833V17.5833Z" fill="#828282"/>
<path d="M19.0835 3.83333H15.1252C15.0699 3.83333 15.0169 3.81138 14.9778 3.77231C14.9388 3.73324 14.9168 3.68025 14.9168 3.625V2.58333C14.9168 2.0308 14.6973 1.5009 14.3066 1.11019C13.9159 0.719493 13.386 0.5 12.8335 0.5L8.66683 0.5C8.11429 0.5 7.58439 0.719493 7.19369 1.11019C6.80299 1.5009 6.5835 2.0308 6.5835 2.58333V3.625C6.5835 3.68025 6.56155 3.73324 6.52248 3.77231C6.48341 3.81138 6.43042 3.83333 6.37516 3.83333H2.41683C2.19582 3.83333 1.98385 3.92113 1.82757 4.07741C1.67129 4.23369 1.5835 4.44565 1.5835 4.66667C1.5835 4.88768 1.67129 5.09964 1.82757 5.25592C1.98385 5.4122 2.19582 5.5 2.41683 5.5H19.0835C19.3045 5.5 19.5165 5.4122 19.6728 5.25592C19.829 5.09964 19.9168 4.88768 19.9168 4.66667C19.9168 4.44565 19.829 4.23369 19.6728 4.07741C19.5165 3.92113 19.3045 3.83333 19.0835 3.83333ZM8.25016 3.625V2.58333C8.25016 2.47283 8.29406 2.36685 8.3722 2.28871C8.45034 2.21057 8.55632 2.16667 8.66683 2.16667H12.8335C12.944 2.16667 13.05 2.21057 13.1281 2.28871C13.2063 2.36685 13.2502 2.47283 13.2502 2.58333V3.625C13.2502 3.68025 13.2282 3.73324 13.1891 3.77231C13.1501 3.81138 13.0971 3.83333 13.0418 3.83333H8.4585C8.40324 3.83333 8.35025 3.81138 8.31118 3.77231C8.27211 3.73324 8.25016 3.68025 8.25016 3.625Z" fill="#828282"/>
</g>
<defs>
<clipPath id="clip0">
<rect width="20" height="20" fill="white" transform="translate(0.75 0.5)"/>
</clipPath>
</defs>
</svg>
