<svg width="177" height="33" viewBox="0 0 177 33" fill="none" xmlns="http://www.w3.org/2000/svg">
<path d="M46.6387 14.1913C46.6387 16.3086 45.1041 17.5919 42.5718 17.5919H40.1613V20.5469H38.7676V10.7908H42.5718C45.1041 10.7908 46.6387 12.0741 46.6387 14.1913ZM45.245 14.1913C45.245 12.7976 44.312 12.0055 42.5299 12.0055H40.1613V16.3809H42.5299C44.312 16.3809 45.245 15.5851 45.245 14.1913Z" fill="#8B96A2"/>
<path d="M57.1572 19.3321V20.5431H50.0781V10.7908H56.963V12.0017H51.4719V14.9986H56.3613V16.1829H51.4719V19.3321H57.1572Z" fill="#8B96A2"/>
<path d="M62.7458 12.0049H59.4023V10.7939H67.4715V12.0049H64.1281V20.5463H62.7496V12.0049H62.7458Z" fill="#8B96A2"/>
<path d="M76.9001 20.5469L74.7942 17.55C74.6 17.5652 74.3906 17.5766 74.1812 17.5766H71.7707V20.5431H70.377V10.7908H74.1812C76.7173 10.7908 78.2481 12.0741 78.2481 14.1913C78.2481 15.6955 77.4675 16.7846 76.1042 17.272L78.4157 20.5469H76.9001ZM76.8582 14.1913C76.8582 12.7976 75.9252 12.0055 74.1431 12.0055H71.7745V16.3962H74.1431C75.9252 16.3924 76.8582 15.5851 76.8582 14.1913Z" fill="#8B96A2"/>
<path d="M81.1094 15.6684C81.1094 12.8124 83.3104 10.6799 86.3073 10.6799C89.2737 10.6799 91.4786 12.7972 91.4786 15.6684C91.4786 18.5397 89.2776 20.6569 86.3073 20.6569C83.3142 20.6569 81.1094 18.5244 81.1094 15.6684ZM90.0848 15.6684C90.0848 13.5093 88.4703 11.9213 86.3073 11.9213C84.1215 11.9213 82.5031 13.5093 82.5031 15.6684C82.5031 17.8276 84.1215 19.4155 86.3073 19.4155C88.4664 19.4155 90.0848 17.8276 90.0848 15.6684Z" fill="#8B96A2"/>
<path d="M103.169 10.7908L98.8928 20.5431H97.5143L93.2227 10.7908H94.7268L98.2378 18.8028L101.775 10.7908H103.169Z" fill="#8B96A2"/>
<path d="M112.441 10.7908H116.55C119.684 10.7908 121.817 12.7709 121.817 15.6688C121.817 18.5667 119.684 20.5469 116.55 20.5469H112.441V10.7908ZM116.47 19.3321C118.881 19.3321 120.427 17.8546 120.427 15.6688C120.427 13.483 118.881 12.0055 116.47 12.0055H113.835V19.3359H116.47V19.3321Z" fill="#8B96A2"/>
<path d="M125.207 10.7908H126.601V20.5431H125.207V10.7908Z" fill="#8B96A2"/>
<path d="M137.61 15.6113H138.946V19.4155C137.972 20.238 136.62 20.6569 135.253 20.6569C132.256 20.6569 130.055 18.5511 130.055 15.6684C130.055 12.7858 132.256 10.6799 135.279 10.6799C136.825 10.6799 138.135 11.194 139.026 12.1841L138.162 13.0485C137.355 12.2679 136.433 11.9213 135.333 11.9213C133.074 11.9213 131.445 13.494 131.445 15.6684C131.445 17.8123 133.074 19.4155 135.317 19.4155C136.14 19.4155 136.905 19.2327 137.602 18.7872V15.6113H137.61Z" fill="#8B96A2"/>
<path d="M143.002 10.7908H144.396V20.5431H143.002V10.7908Z" fill="#8B96A2"/>
<path d="M150.652 12.0049H147.309V10.7939H155.378V12.0049H152.034V20.5463H150.656V12.0049H150.652Z" fill="#8B96A2"/>
<path d="M164.014 18.106H158.832L157.758 20.5431H156.322L160.74 10.7908H162.118L166.551 20.5431H165.088L164.014 18.106ZM163.527 16.994L161.421 12.215L159.315 16.994H163.527Z" fill="#8B96A2"/>
<path d="M169.391 10.7908H170.784V19.3321H176.066V20.5431H169.391V10.7908Z" fill="#8B96A2"/>
<path d="M9.53264 8.31826L0.481539 17.3202L14.9922 31.8493L15.8496 30.9989L6.783 21.9133L14.9746 13.7693C16.4837 12.2683 16.4881 9.8324 14.9843 8.32807C13.4817 6.82244 11.0418 6.81853 9.53264 8.31826ZM14.1214 12.914L5.92982 21.0592L2.19088 17.3239L10.3859 9.17359C11.4215 8.1434 13.0973 8.1464 14.1294 9.17955C15.1616 10.2127 15.157 11.885 14.1214 12.914Z" fill="#8B96A2"/>
<path d="M17.5196 24.2267L26.5707 15.2248L12.06 0.695698L11.2026 1.54607L20.2693 10.6317L12.0765 18.7758C10.5673 20.2767 10.563 22.7126 12.0667 24.217C13.5706 25.7238 16.0105 25.7277 17.5196 24.2267ZM12.9309 19.631L21.1225 11.4858L24.8614 15.221L16.6664 23.3714C15.6308 24.4016 13.955 24.3986 12.9228 23.3654C11.8907 22.3323 11.8953 20.6612 12.9309 19.631Z" fill="#8B96A2"/>
</svg>
